<?xml version="1.0" encoding="utf-8"?>
<svg xmlns="http://www.w3.org/2000/svg" viewBox="0 0 100 100" width="500" height="500">
  <path fill="#ee3e54" d="M13 27A2 2 0 1 0 13 31A2 2 0 1 0 13 27Z" />
  <path fill="#f1bc19" d="M77 12A1 1 0 1 0 77 14A1 1 0 1 0 77 12Z" />
  <path fill="#fce0a2" d="M50 13A37 37 0 1 0 50 87A37 37 0 1 0 50 13Z" />
  <path fill="#f1bc19" d="M83 11A4 4 0 1 0 83 19A4 4 0 1 0 83 11Z" />
  <path fill="#ee3e54" d="M87 22A2 2 0 1 0 87 26A2 2 0 1 0 87 22Z" />
  <path fill="#fbcd59" d="M81 74A2 2 0 1 0 81 78 2 2 0 1 0 81 74zM15 59A4 4 0 1 0 15 67 4 4 0 1 0 15 59z" />
  <path fill="#ee3e54" d="M25 85A2 2 0 1 0 25 89A2 2 0 1 0 25 85Z" />
  <path fill="#fff" d="M18.5 51A2.5 2.5 0 1 0 18.5 56A2.5 2.5 0 1 0 18.5 51Z" />
  <path fill="#f1bc19" d="M21 66A1 1 0 1 0 21 68A1 1 0 1 0 21 66Z" />
  <path fill="#fff" d="M80 33A1 1 0 1 0 80 35A1 1 0 1 0 80 33Z" />
  <path fill="#a3a3cd" d="M25.24,53.3c-1.4,0-2.54-1.14-2.54-2.54v-0.52c0-1.4,1.14-2.54,2.54-2.54h50.52 c1.4,0,2.54,1.14,2.54,2.54v0.52c0,1.4-1.14,2.54-2.54,2.54H25.24z" />
  <path fill="#472b29" d="M75.76,48.4c1.015,0,1.84,0.826,1.84,1.84v0.52c0,1.015-0.826,1.84-1.84,1.84H25.24 c-1.015,0-1.84-0.826-1.84-1.84v-0.52c0-1.015,0.826-1.84,1.84-1.84H75.76 M75.76,47H25.24c-1.79,0-3.24,1.451-3.24,3.24v0.52 c0,1.79,1.451,3.24,3.24,3.24H75.76c1.79,0,3.24-1.451,3.24-3.24v-0.52C79,48.451,77.549,47,75.76,47L75.76,47z" />
  <path fill="#78cdd4" d="M36,70.3c-1.819,0-3.3-1.48-3.3-3.3V34c0-1.819,1.48-3.3,3.3-3.3s3.3,1.48,3.3,3.3v33 C39.3,68.819,37.819,70.3,36,70.3z" />
  <path fill="#472b29" d="M36,31.4c1.434,0,2.6,1.167,2.6,2.6v33c0,1.434-1.166,2.6-2.6,2.6s-2.6-1.167-2.6-2.6V34 C33.4,32.566,34.566,31.4,36,31.4 M36,30c-2.209,0-4,1.791-4,4v33c0,2.209,1.791,4,4,4s4-1.791,4-4V34C40,31.791,38.209,30,36,30 L36,30z" />
  <path fill="#78cdd4" d="M29,63.3c-1.819,0-3.3-1.48-3.3-3.3V41c0-1.819,1.48-3.3,3.3-3.3s3.3,1.48,3.3,3.3v19 C32.3,61.819,30.819,63.3,29,63.3z" />
  <path fill="#472b29" d="M29,38.4c1.434,0,2.6,1.167,2.6,2.6v19c0,1.434-1.166,2.6-2.6,2.6s-2.6-1.167-2.6-2.6V41 C26.4,39.566,27.566,38.4,29,38.4 M29,37c-2.209,0-4,1.791-4,4v19c0,2.209,1.791,4,4,4s4-1.791,4-4V41C33,38.791,31.209,37,29,37 L29,37z" />
  <g>
    <path fill="#78cdd4" d="M65,70.3c-1.819,0-3.3-1.48-3.3-3.3V34c0-1.819,1.48-3.3,3.3-3.3s3.3,1.48,3.3,3.3v33 C68.3,68.819,66.819,70.3,65,70.3z" />
    <path fill="#472b29" d="M65,31.4c1.434,0,2.6,1.167,2.6,2.6v33c0,1.434-1.166,2.6-2.6,2.6s-2.6-1.167-2.6-2.6V34 C62.4,32.566,63.566,31.4,65,31.4 M65,30c-2.209,0-4,1.791-4,4v33c0,2.209,1.791,4,4,4s4-1.791,4-4V34C69,31.791,67.209,30,65,30 L65,30z" />
  </g>
  <g>
    <path fill="#78cdd4" d="M72,63.3c-1.819,0-3.3-1.48-3.3-3.3V41c0-1.819,1.48-3.3,3.3-3.3s3.3,1.48,3.3,3.3v19 C75.3,61.819,73.819,63.3,72,63.3z" />
    <path fill="#472b29" d="M72,38.4c1.434,0,2.6,1.167,2.6,2.6v19c0,1.434-1.166,2.6-2.6,2.6s-2.6-1.167-2.6-2.6V41 C69.4,39.566,70.566,38.4,72,38.4 M72,37c-2.209,0-4,1.791-4,4v19c0,2.209,1.791,4,4,4s4-1.791,4-4V41C76,38.791,74.209,37,72,37 L72,37z" />
  </g>
  <g>
    <path fill="#472b29" d="M29.5,60c-0.276,0-0.5-0.224-0.5-0.5v-11c0-0.276,0.224-0.5,0.5-0.5s0.5,0.224,0.5,0.5v11 C30,59.776,29.776,60,29.5,60z" />
  </g>
  <g>
    <path fill="#472b29" d="M29.5,46c-0.276,0-0.5-0.224-0.5-0.5v-4c0-0.276,0.224-0.5,0.5-0.5s0.5,0.224,0.5,0.5v4 C30,45.776,29.776,46,29.5,46z" />
  </g>
  <g>
    <path fill="#472b29" d="M72.5,60c-0.276,0-0.5-0.224-0.5-0.5v-11c0-0.276,0.224-0.5,0.5-0.5s0.5,0.224,0.5,0.5v11 C73,59.776,72.776,60,72.5,60z" />
  </g>
  <g>
    <path fill="#472b29" d="M72.5,46c-0.276,0-0.5-0.224-0.5-0.5v-4c0-0.276,0.224-0.5,0.5-0.5s0.5,0.224,0.5,0.5v4 C73,45.776,72.776,46,72.5,46z" />
  </g>
  <g>
    <path fill="#472b29" d="M36.5,67c-0.276,0-0.5-0.224-0.5-0.5v-11c0-0.276,0.224-0.5,0.5-0.5s0.5,0.224,0.5,0.5v11 C37,66.776,36.776,67,36.5,67z" />
  </g>
  <g>
    <path fill="#472b29" d="M36.5,39c-0.276,0-0.5-0.224-0.5-0.5v-4c0-0.276,0.224-0.5,0.5-0.5s0.5,0.224,0.5,0.5v4 C37,38.776,36.776,39,36.5,39z" />
  </g>
  <g>
    <path fill="#472b29" d="M36.5,53c-0.276,0-0.5-0.224-0.5-0.5v-12c0-0.276,0.224-0.5,0.5-0.5s0.5,0.224,0.5,0.5v12 C37,52.776,36.776,53,36.5,53z" />
  </g>
  <g>
    <path fill="#472b29" d="M65.5,67c-0.276,0-0.5-0.224-0.5-0.5v-11c0-0.276,0.224-0.5,0.5-0.5s0.5,0.224,0.5,0.5v11 C66,66.776,65.776,67,65.5,67z" />
  </g>
  <g>
    <path fill="#472b29" d="M65.5,39c-0.276,0-0.5-0.224-0.5-0.5v-4c0-0.276,0.224-0.5,0.5-0.5s0.5,0.224,0.5,0.5v4 C66,38.776,65.776,39,65.5,39z" />
  </g>
  <g>
    <path fill="#472b29" d="M65.5,53c-0.276,0-0.5-0.224-0.5-0.5v-12c0-0.276,0.224-0.5,0.5-0.5s0.5,0.224,0.5,0.5v12 C66,52.776,65.776,53,65.5,53z" />
  </g>
</svg>